<svg xmlns="http://www.w3.org/2000/svg" viewBox="0 0 64 64" width="64" height="64">
  <defs>
    <linearGradient id="g" x1="0" y1="0" x2="1" y2="1">
      <stop offset="0" stop-color="#22d3ee"/>
      <stop offset="1" stop-color="#0ea5b7"/>
    </linearGradient>
  </defs>
  <rect width="64" height="64" rx="14" fill="url(#g)"/>
  <path d="M8 40c4 0 4-6 8-6s4 6 8 6 4-6 8-6 4 6 8 6 4-6 8-6 4 6 8 6"
        fill="none" stroke="#ffffff" stroke-width="3.5" stroke-linecap="round"/>
  <path d="M8 28c4 0 4-6 8-6s4 6 8 6 4-6 8-6 4 6 8 6 4-6 8-6 4 6 8 6"
        fill="none" stroke="#ffffff" stroke-width="3.5" stroke-linecap="round" opacity="0.55"/>
</svg>
